<svg width="24" height="24" viewBox="0 0 24 24" fill="none" xmlns="http://www.w3.org/2000/svg">
<line x1="1" y1="-1" x2="14" y2="-1" transform="matrix(-1 0 0 1 16 20)" stroke="white" stroke-width="2" stroke-linecap="square" stroke-linejoin="round"/>
<line x1="1" y1="-1" x2="4" y2="-1" transform="matrix(-1 0 0 1 23 20)" stroke="white" stroke-width="2" stroke-linecap="square" stroke-linejoin="round"/>
<circle r="2" transform="matrix(-1 0 0 1 17 19)" stroke="white" stroke-width="2"/>
<circle r="2" transform="matrix(-1 0 0 1 7 12)" stroke="white" stroke-width="2"/>
<line x1="1" y1="-1" x2="4" y2="-1" transform="matrix(-1 -8.74228e-08 -8.74228e-08 1 6 13)" stroke="white" stroke-width="2" stroke-linecap="square" stroke-linejoin="round"/>
<line x1="1" y1="-1" x2="14" y2="-1" transform="matrix(-1 0 0 1 23 13)" stroke="white" stroke-width="2" stroke-linecap="square" stroke-linejoin="round"/>
<circle r="2" transform="matrix(-1 0 0 1 17 5)" stroke="white" stroke-width="2"/>
<line x1="1" y1="-1" x2="14" y2="-1" transform="matrix(-1 -8.74228e-08 -8.74228e-08 1 16 6)" stroke="white" stroke-width="2" stroke-linecap="square" stroke-linejoin="round"/>
<line x1="1" y1="-1" x2="4" y2="-1" transform="matrix(-1 -8.74228e-08 -8.74228e-08 1 23 6)" stroke="white" stroke-width="2" stroke-linecap="square" stroke-linejoin="round"/>
</svg>
