<svg width="24" height="24" viewBox="0 0 24 24" fill="none" xmlns="http://www.w3.org/2000/svg">
<g clip-path="url(#clip0_711_1162)">
<path d="M3 12C3 14.0822 3.72197 16.1 5.04291 17.7095C6.36384 19.3191 8.202 20.4209 10.2442 20.8271C12.2864 21.2333 14.4062 20.9188 16.2426 19.9373C18.0789 18.9557 19.5181 17.3678 20.3149 15.4441C21.1117 13.5204 21.2169 11.38 20.6125 9.38744C20.008 7.3949 18.7314 5.67358 17.0001 4.51677C15.2688 3.35996 13.19 2.83925 11.1178 3.04334C9.04567 3.24743 7.10837 4.1637 5.63604 5.63604L4.22183 7.05025" stroke="#0000FF" stroke-width="2"/>
<path d="M4.22183 3.22182L4.22183 7.05024L8.05025 7.05024" stroke="#0000FF" stroke-width="2" stroke-linecap="round"/>
</g>
<defs>
<clipPath id="clip0_711_1162">
<rect width="24" height="24" fill="white"/>
</clipPath>
</defs>
</svg>
